<svg width="16" height="16" viewBox="0 0 16 16" fill="none" xmlns="http://www.w3.org/2000/svg">
<path d="M14.25 0.5H1.75C1.41848 0.5 1.10054 0.631696 0.866116 0.866116C0.631696 1.10054 0.5 1.41848 0.5 1.75V14.25C0.5 14.5815 0.631696 14.8995 0.866116 15.1339C1.10054 15.3683 1.41848 15.5 1.75 15.5H14.25C14.5815 15.5 14.8995 15.3683 15.1339 15.1339C15.3683 14.8995 15.5 14.5815 15.5 14.25V1.75C15.5 1.41848 15.3683 1.10054 15.1339 0.866116C14.8995 0.631696 14.5815 0.5 14.25 0.5ZM11.125 8.625H8.625V11.125C8.625 11.2908 8.55915 11.4497 8.44194 11.5669C8.32473 11.6842 8.16576 11.75 8 11.75C7.83424 11.75 7.67527 11.6842 7.55806 11.5669C7.44085 11.4497 7.375 11.2908 7.375 11.125V8.625H4.875C4.70924 8.625 4.55027 8.55915 4.43306 8.44194C4.31585 8.32473 4.25 8.16576 4.25 8C4.25 7.83424 4.31585 7.67527 4.43306 7.55806C4.55027 7.44085 4.70924 7.375 4.875 7.375H7.375V4.875C7.375 4.70924 7.44085 4.55027 7.55806 4.43306C7.67527 4.31585 7.83424 4.25 8 4.25C8.16576 4.25 8.32473 4.31585 8.44194 4.43306C8.55915 4.55027 8.625 4.70924 8.625 4.875V7.375H11.125C11.2908 7.375 11.4497 7.44085 11.5669 7.55806C11.6842 7.67527 11.75 7.83424 11.75 8C11.75 8.16576 11.6842 8.32473 11.5669 8.44194C11.4497 8.55915 11.2908 8.625 11.125 8.625Z" fill="#E0DDDD" fill-opacity="0.866667"/>
</svg>
